<svg width="21" height="20" viewBox="0 0 21 20" fill="none" xmlns="http://www.w3.org/2000/svg">
<path fill-rule="evenodd" clip-rule="evenodd" d="M7.97493 0.916626L7.99999 0.916626L8.02505 0.916626H8.02505C8.85755 0.916623 9.51735 0.91662 10.0529 0.950138C10.5997 0.984366 11.0669 1.05562 11.5065 1.22107C12.7867 1.7029 13.797 2.71324 14.2789 3.99344C14.4443 4.43304 14.5156 4.90023 14.5498 5.44709C14.5833 5.98259 14.5833 6.64238 14.5833 7.47485V7.49996V12.5V12.5251C14.5833 13.3575 14.5833 14.0173 14.5498 14.5528C14.5156 15.0997 14.4443 15.5669 14.2789 16.0065C13.797 17.2867 12.7867 18.297 11.5065 18.7788C11.0669 18.9443 10.5997 19.0156 10.0529 19.0498C9.51735 19.0833 8.85754 19.0833 8.02503 19.0833H7.99999H7.97495C7.14244 19.0833 6.48263 19.0833 5.94712 19.0498C5.40026 19.0156 4.93307 18.9443 4.49347 18.7788C3.21327 18.297 2.20294 17.2867 1.7211 16.0065C1.55565 15.5669 1.4844 15.0997 1.45017 14.5528C1.41665 14.0173 1.41665 13.3575 1.41666 12.525L1.41666 12.5V7.49996L1.41666 7.4749V7.4749C1.41665 6.6424 1.41665 5.9826 1.45017 5.44709C1.4844 4.90023 1.55565 4.43304 1.7211 3.99344C2.20294 2.71324 3.21327 1.7029 4.49347 1.22107C4.93307 1.05562 5.40026 0.984366 5.94712 0.950138C6.48263 0.91662 7.14243 0.916623 7.97493 0.916626H7.97493ZM16.3333 4.24996C16.7475 4.24996 17.0833 4.58575 17.0833 4.99996V15C17.0833 15.4142 16.7475 15.75 16.3333 15.75C15.9191 15.75 15.5833 15.4142 15.5833 15V4.99996C15.5833 4.58575 15.9191 4.24996 16.3333 4.24996ZM18.8333 5.91663C19.2475 5.91663 19.5833 6.25241 19.5833 6.66663V13.3333C19.5833 13.7475 19.2475 14.0833 18.8333 14.0833C18.4191 14.0833 18.0833 13.7475 18.0833 13.3333V6.66663C18.0833 6.25241 18.4191 5.91663 18.8333 5.91663ZM5.49999 5.08329C5.08578 5.08329 4.74999 5.41908 4.74999 5.83329C4.74999 6.24751 5.08578 6.58329 5.49999 6.58329H10.5C10.9142 6.58329 11.25 6.24751 11.25 5.83329C11.25 5.41908 10.9142 5.08329 10.5 5.08329H5.49999ZM5.49999 8.41663C5.08578 8.41663 4.74999 8.75241 4.74999 9.16663C4.74999 9.58084 5.08578 9.91663 5.49999 9.91663H10.5C10.9142 9.91663 11.25 9.58084 11.25 9.16663C11.25 8.75241 10.9142 8.41663 10.5 8.41663H5.49999ZM5.49999 11.75C5.08578 11.75 4.74999 12.0857 4.74999 12.5C4.74999 12.9142 5.08578 13.25 5.49999 13.25H7.16666C7.58087 13.25 7.91666 12.9142 7.91666 12.5C7.91666 12.0857 7.58087 11.75 7.16666 11.75H5.49999Z" fill="#EF4444"/>
</svg>
