<svg width="21" height="20" viewBox="0 0 21 20" fill="none" xmlns="http://www.w3.org/2000/svg">
<path d="M5.50002 5.83329H10.5M5.50002 9.16663H10.5M5.50002 12.5H7.16669M16.3334 4.99996V15M18.8334 6.66663V13.3333M8.00002 18.3333V18.3333C9.70746 18.3333 10.5612 18.3333 11.2424 18.0769C12.3204 17.6712 13.1712 16.8204 13.577 15.7423C13.8334 15.0611 13.8334 14.2074 13.8334 12.5V7.49996C13.8334 5.79252 13.8334 4.9388 13.577 4.25763C13.1712 3.17957 12.3204 2.32876 11.2424 1.923C10.5612 1.66663 9.70746 1.66663 8.00002 1.66663V1.66663C6.29258 1.66663 5.43886 1.66663 4.75769 1.923C3.67963 2.32876 2.82882 3.17957 2.42306 4.25763C2.16669 4.9388 2.16669 5.79252 2.16669 7.49996V12.5C2.16669 14.2074 2.16669 15.0611 2.42306 15.7423C2.82882 16.8204 3.67963 17.6712 4.75769 18.0769C5.43886 18.3333 6.29258 18.3333 8.00002 18.3333Z" stroke="#A3A3A3" stroke-width="1.5" stroke-linecap="round" stroke-linejoin="round"/>
</svg>
