<svg width="21" height="20" viewBox="0 0 21 20" fill="none" xmlns="http://www.w3.org/2000/svg">
<path d="M8.00001 15C8.00001 15 8.83334 15.4166 10.5 15.4166M10.5 15.4166C12.1667 15.4166 13 15 13 15M10.5 15.4166V11.6666M17.1667 8.33329C17.1667 4.65139 14.1819 1.66663 10.5 1.66663C6.81811 1.66663 3.83334 4.65139 3.83334 8.33329C3.83334 10.7901 5.68859 12.7511 6.92316 13.784C7.56362 14.3198 8.00001 15.0918 8.00001 15.9269V15.9269C8.00001 17.2559 9.0774 18.3333 10.4064 18.3333H10.6057C11.928 18.3333 13 17.2613 13 15.9389V15.9389C13 15.0979 13.4452 14.3217 14.0932 13.7855C15.3277 12.7641 17.1667 10.8246 17.1667 8.33329Z" stroke="#A3A3A3" stroke-width="1.5" stroke-linecap="round" stroke-linejoin="round"/>
</svg>
