<svg width="22" height="22" viewBox="0 0 22 22" fill="none" xmlns="http://www.w3.org/2000/svg">
<g id="bulb">
<g id="Vector">
<path d="M16.0933 15.0703C15.8485 15.3031 15.7261 15.4196 15.5287 15.5358C15.3727 15.6277 15.1423 15.7198 14.966 15.7607C14.7428 15.8125 14.5342 15.8125 14.117 15.8125H13.2868C12.7268 15.8125 12.4468 15.8125 12.2329 15.7035C12.0447 15.6077 11.8917 15.4547 11.7958 15.2665C11.6868 15.0526 11.6868 14.7726 11.6868 14.2125V12.8334C11.6868 12.4537 11.379 12.1459 10.9993 12.1459C10.6197 12.1459 10.3118 12.4537 10.3118 12.8334V14.2125C10.3118 14.7726 10.3118 15.0526 10.2029 15.2665C10.107 15.4547 9.954 15.6077 9.76584 15.7035C9.55193 15.8125 9.2719 15.8125 8.71185 15.8125H7.9102C7.48924 15.8125 7.27875 15.8125 7.05459 15.7603C6.87689 15.7188 6.64672 15.6263 6.48972 15.5334C6.29168 15.4161 6.16771 15.2973 5.91977 15.0598C5.76766 14.9141 5.6129 14.7591 5.45801 14.5952C4.26517 13.333 2.97852 11.4512 2.97852 9.16671C2.97852 4.73692 6.56957 1.14587 10.9993 1.14587C15.4291 1.14587 19.0202 4.73692 19.0202 9.16671C19.0202 11.487 17.7356 13.3687 16.5389 14.6252C16.3895 14.7821 16.2402 14.9306 16.0933 15.0703Z" fill="#FBBF24"/>
<path d="M14.4368 17.1875H7.56185V17.4167C7.56185 19.3152 9.10087 20.8542 10.9993 20.8542C12.8978 20.8542 14.4368 19.3152 14.4368 17.4167V17.1875Z" fill="#FBBF24"/>
</g>
</g>
</svg>
