<svg width="18" height="18" viewBox="0 0 18 18" fill="none" xmlns="http://www.w3.org/2000/svg">
<path fill-rule="evenodd" clip-rule="evenodd" d="M9.04026 1.10597C8.10977 0.476882 6.89023 0.476882 5.95974 1.10597C5.82873 1.19455 5.69891 1.30589 5.5314 1.44956L5.53139 1.44956L5.5007 1.47588C5.34072 1.61301 5.29647 1.64996 5.25685 1.67812C4.92966 1.91066 4.51071 1.97192 4.13064 1.8428C4.08461 1.82717 4.03164 1.80443 3.83909 1.71886L1.8046 0.814641C1.57261 0.71153 1.30419 0.732788 1.09132 0.871131C0.878438 1.00947 0.75 1.24612 0.75 1.5V10.1L0.75 10.133C0.749994 11.2251 0.74999 12.0906 0.806988 12.7883C0.865274 13.5017 0.986882 14.1053 1.26772 14.6565C1.72312 15.5502 2.44978 16.2769 3.34355 16.7323C3.89472 17.0131 4.49834 17.1347 5.21173 17.193C5.90935 17.25 6.77484 17.25 7.86698 17.25H7.9H15C16.2426 17.25 17.25 16.2426 17.25 15V12C17.25 10.1858 15.9617 8.67247 14.25 8.32501V1.5C14.25 1.24612 14.1216 1.00947 13.9087 0.871131C13.6958 0.732788 13.4274 0.71153 13.1954 0.814641L11.1609 1.71886C10.9684 1.80443 10.9154 1.82717 10.8694 1.8428C10.4893 1.97192 10.0703 1.91066 9.74315 1.67812C9.70353 1.64996 9.65928 1.61301 9.4993 1.47588L9.46863 1.44958C9.3011 1.3059 9.17128 1.19456 9.04026 1.10597ZM14.25 15V9.87803C15.1239 10.1869 15.75 11.0203 15.75 12V15C15.75 15.4142 15.4142 15.75 15 15.75C14.5858 15.75 14.25 15.4142 14.25 15ZM4.5 6.74991C4.5 6.3357 4.83579 5.99991 5.25 5.99991H8.25C8.66421 5.99991 9 6.3357 9 6.74991C9 7.16412 8.66421 7.49991 8.25 7.49991H5.25C4.83579 7.49991 4.5 7.16412 4.5 6.74991ZM4.5 9.74991C4.5 9.3357 4.83579 8.99991 5.25 8.99991H9.75C10.1642 8.99991 10.5 9.3357 10.5 9.74991C10.5 10.1641 10.1642 10.4999 9.75 10.4999H5.25C4.83579 10.4999 4.5 10.1641 4.5 9.74991ZM4.5 12.7499C4.5 12.3357 4.83579 11.9999 5.25 11.9999H9.75C10.1642 11.9999 10.5 12.3357 10.5 12.7499C10.5 13.1641 10.1642 13.4999 9.75 13.4999H5.25C4.83579 13.4999 4.5 13.1641 4.5 12.7499Z" fill="#60A5FA"/>
</svg>
