<svg width="21" height="20" viewBox="0 0 21 20" fill="none" xmlns="http://www.w3.org/2000/svg">
<path d="M15.5 10V1.66671L13.2395 2.67139C12.9164 2.81497 12.7549 2.88676 12.5964 2.92804C12.0733 3.06429 11.5173 2.98298 11.0551 2.70266C10.9151 2.61772 10.7809 2.50269 10.5124 2.27262V2.27262C10.1563 1.96739 9.97829 1.81478 9.79758 1.71533C9.1972 1.38493 8.46945 1.38493 7.86907 1.71533C7.68835 1.81478 7.5103 1.96739 7.1542 2.27262V2.27262C6.88579 2.50269 6.75159 2.61772 6.61154 2.70266C6.14935 2.98298 5.59337 3.06429 5.07027 2.92804C4.91176 2.88676 4.75024 2.81497 4.4272 2.67139L2.16666 1.66671V11.9334C2.16666 14.1736 2.16666 15.2937 2.60263 16.1493C2.98612 16.902 3.59805 17.5139 4.35069 17.8974C5.20634 18.3334 6.32645 18.3334 8.56666 18.3334H17.1667M15.5 10H15.6333C16.7534 10 17.3135 10 17.7413 10.218C18.1176 10.4098 18.4236 10.7157 18.6153 11.0921C18.8333 11.5199 18.8333 12.0799 18.8333 13.2V16.6667C18.8333 17.5872 18.0871 18.3334 17.1667 18.3334V18.3334C16.2462 18.3334 15.5 17.5872 15.5 16.6667V10ZM6.33332 14.1667H11.3333M6.33332 7.50004H9.66666M6.33332 10.8334H11.3333" stroke="#A3A3A3" stroke-width="1.5" stroke-linecap="round" stroke-linejoin="round"/>
</svg>
