<svg width="21" height="20" viewBox="0 0 21 20" fill="none" xmlns="http://www.w3.org/2000/svg">
<path d="M7.87948 4.40765C8.59086 2.98489 8.94655 2.27351 9.38325 1.97958C10.0584 1.52516 10.9416 1.52516 11.6167 1.97958C12.0534 2.27351 12.4091 2.98489 13.1205 4.40766L13.1601 4.48692C13.3417 4.84999 13.4324 5.03152 13.5491 5.18354C13.8005 5.51101 14.1471 5.75266 14.5413 5.87533C14.7242 5.93228 14.926 5.9547 15.3294 5.99952V5.99952C16.7336 6.15554 17.4356 6.23355 17.8152 6.46538C18.6506 6.97562 18.9939 8.01557 18.6265 8.92289C18.4595 9.33514 17.9419 9.81581 16.9066 10.7771L16.7892 10.8862C16.4723 11.1804 16.3139 11.3275 16.1974 11.4895C15.897 11.907 15.7691 12.4243 15.8402 12.9338C15.8677 13.1313 15.9393 13.3353 16.0825 13.7434V13.7434C16.5471 15.0676 16.7794 15.7297 16.751 16.141C16.6753 17.2336 15.735 18.0621 14.6417 17.9996C14.2301 17.9761 13.6025 17.6623 12.3472 17.0347L11.8099 16.766C11.404 16.5631 11.201 16.4616 10.9915 16.4085C10.6689 16.3267 10.3311 16.3267 10.0085 16.4085C9.79894 16.4616 9.596 16.5631 9.19011 16.766L8.65275 17.0347C7.39753 17.6623 6.76992 17.9761 6.35832 17.9996C5.26493 18.0621 4.32465 17.2336 4.24901 16.141C4.22054 15.7297 4.45286 15.0676 4.9175 13.7434V13.7434C5.06067 13.3353 5.13226 13.1313 5.15982 12.9338C5.23091 12.4243 5.10297 11.907 4.80258 11.4895C4.68609 11.3275 4.52765 11.1804 4.21077 10.8862L4.09337 10.7771C3.05808 9.81581 2.54044 9.33514 2.3735 8.92289C2.00607 8.01557 2.34938 6.97562 3.18479 6.46538C3.56436 6.23355 4.26643 6.15554 5.67057 5.99952V5.99952C6.07401 5.9547 6.27573 5.93228 6.45872 5.87533C6.8529 5.75266 7.19946 5.51101 7.45084 5.18354C7.56754 5.03152 7.65831 4.84999 7.83984 4.48692L7.87948 4.40765Z" stroke="#A3A3A3" stroke-width="1.5" stroke-linecap="round" stroke-linejoin="round"/>
</svg>
