<svg width="22" height="22" viewBox="0 0 22 22" fill="none" xmlns="http://www.w3.org/2000/svg">
<path d="M14.2653 4.07657C13.3911 2.32814 12.954 1.45392 12.4379 1.09109C11.5752 0.48456 10.4248 0.484559 9.56211 1.09108C9.04606 1.45392 8.60895 2.32814 7.73473 4.07657C7.50291 4.54021 7.387 4.77204 7.24147 4.96175C6.92701 5.37169 6.49327 5.67413 5.9999 5.82748C5.77157 5.89845 5.51967 5.92644 5.01587 5.98242C3.26515 6.17694 2.38979 6.2742 1.91663 6.56218C0.86885 7.19989 0.438476 8.50356 0.900653 9.63974C1.10936 10.1528 1.7667 10.7632 3.08139 11.984C3.48313 12.357 3.684 12.5436 3.82915 12.745C4.20595 13.2678 4.36627 13.916 4.27666 14.5542C4.24214 14.8001 4.15305 15.054 3.97485 15.5618C3.39656 17.21 3.10741 18.034 3.14195 18.5459C3.23435 19.9152 4.41325 20.954 5.78324 20.8733C6.29542 20.8432 7.07654 20.4526 8.6388 19.6715L9.35523 19.3132C9.86986 19.0559 10.1272 18.9273 10.3931 18.8607C10.7916 18.761 11.2085 18.761 11.6069 18.8607C11.8728 18.9273 12.1302 19.0559 12.6448 19.3132L13.3612 19.6715C14.9235 20.4526 15.7046 20.8431 16.2168 20.8733C17.5868 20.954 18.7657 19.9152 18.858 18.5459C18.8926 18.034 18.6034 17.21 18.0252 15.5618C17.847 15.054 17.7579 14.8001 17.7233 14.5542C17.6337 13.916 17.7941 13.2678 18.1709 12.745C18.316 12.5436 18.5169 12.357 18.9186 11.984C20.2333 10.7632 20.8906 10.1528 21.0994 9.63974C21.5615 8.50356 21.1312 7.19989 20.0834 6.56218C19.6102 6.2742 18.7349 6.17694 16.9841 5.98242C16.4803 5.92644 16.2284 5.89845 16.0001 5.82748C15.5067 5.67413 15.073 5.37168 14.7585 4.96175C14.613 4.77203 14.4971 4.54021 14.2653 4.07657Z" fill="#F87171"/>
</svg>
